<svg version="1.1" id="Layer_1" xmlns="http://www.w3.org/2000/svg" xmlns:xlink="http://www.w3.org/1999/xlink" x="0px" y="0px"
	 width="100%" viewBox="0 0 224 224" enable-background="new 0 0 224 224" xml:space="preserve">
<path fill="#000000" opacity="1.000000" stroke="none" 
	d="
M96.266296,212.613541 
	C96.409767,212.528885 96.558327,212.451736 96.695915,212.358429 
	C98.939781,210.836777 102.639633,213.807480 103.949593,210.659073 
	C105.558159,206.792923 104.602409,202.456345 104.618309,198.321030 
	C104.620476,197.758301 104.153069,196.817139 103.715401,196.688187 
	C99.777657,195.528061 99.330719,192.192337 98.457542,188.939346 
	C97.729462,186.226883 97.140228,183.124420 92.871513,186.076126 
	C90.497063,187.717987 89.403374,185.067093 88.958649,183.096146 
	C88.481911,180.983353 88.241890,178.816345 87.043358,176.952621 
	C86.312660,175.816391 85.409706,174.714508 83.892868,174.837006 
	C82.369492,174.960022 81.768921,176.165512 81.204643,177.450668 
	C80.139160,179.877396 80.061958,183.964462 76.144676,182.951538 
	C72.146896,181.917770 74.020599,177.991852 73.843727,175.221130 
	C73.642029,172.061722 74.624557,168.656540 72.127914,166.019394 
	C69.867867,166.586426 70.148582,168.123398 70.123619,169.355438 
	C70.079834,171.517227 70.295876,173.683350 70.283859,175.847000 
	C70.271530,178.068024 70.053253,180.756622 67.360634,180.854553 
	C64.353928,180.963928 63.888397,178.151703 63.849449,175.764267 
	C63.760643,170.321884 65.692215,164.890762 63.813126,159.419617 
	C63.332531,158.020309 63.263168,156.486465 61.717144,155.261093 
	C59.902431,156.417572 60.214954,158.302429 60.219410,160.002380 
	C60.224224,161.840561 60.275215,163.644775 59.519562,165.398499 
	C58.868069,166.910477 57.895233,168.005630 56.208801,167.966553 
	C54.318092,167.922714 53.027908,166.743271 52.751030,164.941666 
	C52.477222,163.160049 52.544643,161.306244 52.633541,159.492493 
	C52.864567,154.779175 54.285778,150.217773 51.441032,145.464233 
	C49.725830,142.598129 52.277897,139.456268 54.396706,137.026917 
	C57.182274,133.833084 61.004726,132.006958 64.409477,129.627899 
	C73.947952,122.962921 75.174522,118.149673 68.877014,108.377823 
	C62.739525,98.854279 61.836590,89.629860 68.332596,79.980362 
	C70.653236,76.533165 72.086136,73.101746 66.114349,71.439491 
	C63.957207,70.839043 63.422497,68.554520 63.888172,66.420784 
	C64.203079,64.977890 64.601967,63.383167 65.479713,62.259907 
	C73.213188,52.363293 77.644867,40.381596 85.157402,30.458033 
	C93.740181,19.120762 104.994926,11.840893 120.112831,12.609226 
	C123.512527,12.782007 126.703918,13.553613 129.784927,14.817245 
	C150.739563,23.411505 164.010956,46.516014 160.971054,68.865814 
	C159.739487,77.920540 158.432297,86.942703 160.181946,96.151634 
	C161.259827,101.824829 159.484528,107.348511 157.900940,112.818062 
	C154.607117,124.194626 155.618393,126.579094 165.814346,132.711838 
	C169.413162,134.876465 172.842834,137.266785 174.847549,141.102783 
	C176.397781,144.069122 176.690887,146.809494 172.952667,148.584930 
	C169.474792,150.236725 169.617722,153.606308 169.351959,156.754150 
	C168.944321,161.582642 170.753387,166.361664 169.710052,171.184555 
	C169.316940,173.001785 169.551407,175.767502 166.645325,175.421036 
	C164.290909,175.140320 163.969193,172.819443 163.673584,170.774429 
	C163.077911,166.653549 164.923615,162.189865 161.990677,157.916794 
	C159.446640,160.135559 159.880386,162.933243 159.505005,165.391418 
	C159.255890,167.022675 159.518265,168.730347 159.287506,170.366562 
	C159.024719,172.229645 158.365097,174.165268 156.037933,174.088333 
	C153.698715,174.011017 153.368790,171.953751 152.968552,170.143845 
	C152.455429,167.823532 154.454514,165.213943 151.977737,162.725372 
	C148.232666,164.831650 148.409378,168.293991 148.736084,171.654434 
	C149.121628,175.620087 149.906281,179.547485 150.274017,183.514069 
	C150.423019,185.121185 150.109741,186.837936 149.676407,188.413940 
	C149.221146,190.069687 148.216354,191.508652 146.174515,191.368423 
	C143.991196,191.218475 142.788208,189.773331 142.753403,187.754562 
	C142.684708,183.770447 142.867554,179.780212 143.019821,175.795319 
	C143.057495,174.809296 143.567581,173.826294 143.528214,172.855377 
	C143.431824,170.477798 144.850067,167.119415 142.039505,166.090546 
	C138.923309,164.949814 138.176987,168.489227 137.083435,170.555069 
	C135.651428,173.260269 133.752655,175.192413 130.603973,175.324249 
	C125.210342,175.550110 122.452950,178.618973 121.501221,183.586090 
	C120.682076,187.861237 119.159782,191.255707 114.021660,191.347702 
	C112.531639,191.374374 111.749146,192.482468 111.132416,193.768799 
	C108.812508,198.607559 110.613724,209.377426 114.421417,213.130600 
	C116.901093,211.655670 119.684380,211.622940 122.392487,211.761063 
	C127.349442,212.013916 132.290543,212.375641 137.256744,211.929398 
	C138.886276,211.783005 140.247833,212.411758 140.686249,214.162491 
	C141.020630,215.497864 141.068634,216.962769 139.760071,217.768585 
	C138.545486,218.516510 137.229507,217.224304 136.400970,217.205780 
	C134.065979,217.153549 132.080185,214.770340 129.319809,216.594193 
	C127.723679,217.648788 125.210022,216.437195 122.952347,216.650818 
	C115.041122,217.399460 107.034294,217.135925 99.063850,217.261932 
	C97.082764,217.293243 95.924973,216.387177 95.855621,213.751389 
	C96.089447,212.955902 96.177872,212.784729 96.266296,212.613541 
M134.817627,43.674011 
	C131.057770,40.612274 127.058899,37.914597 122.554863,36.076775 
	C112.718979,32.063362 102.401215,33.671455 97.569496,41.975246 
	C90.944145,53.361588 86.004890,65.713036 79.920067,77.463882 
	C76.820152,83.450340 81.927193,88.800568 88.884079,88.727249 
	C91.364906,88.701103 93.430313,86.918579 96.275230,87.131844 
	C94.975403,91.139969 90.828598,89.783211 88.433990,92.518257 
	C91.856888,100.053764 90.622421,108.694862 92.196518,116.977676 
	C94.210808,127.576714 96.608025,138.109314 96.499451,149.031158 
	C96.465569,152.440353 97.569496,155.903107 98.443634,159.265671 
	C99.138069,161.936951 100.659363,164.161652 103.683723,164.680511 
	C106.873512,165.227798 109.098083,163.628830 110.900772,161.211105 
	C113.742096,157.400391 115.348053,152.985138 116.490379,148.488266 
	C119.426781,136.928787 124.436699,126.300522 130.179138,115.931038 
	C133.056976,110.734352 135.533142,105.315239 138.254532,99.869553 
	C133.509933,98.131287 128.997238,96.926743 127.102768,91.772514 
	C129.797592,91.471542 130.969894,93.434792 132.645432,94.310066 
	C137.503784,96.848000 142.341202,96.295891 145.920715,92.618507 
	C149.552597,88.887314 149.946198,84.999229 146.862015,79.966751 
	C144.768753,76.551140 143.834732,73.107468 144.596481,69.073898 
	C146.505157,58.967091 142.790329,50.841686 134.817627,43.674011 
z"/>
<path fill="#000000" opacity="1.000000" stroke="none" 
	d="
M71.643417,191.775406 
	C71.996574,189.632202 72.078705,187.774979 74.410118,186.307510 
	C76.931999,189.582733 77.450897,193.174026 76.615952,197.042038 
	C76.369354,198.184402 75.433289,199.035645 74.100975,199.035889 
	C72.485893,199.036179 71.695526,197.969070 71.553665,196.560577 
	C71.407944,195.113724 71.575508,193.635300 71.643417,191.775406 
z"/>
<path fill="#000000" opacity="1.000000" stroke="none" 
	d="
M95.874969,213.387146 
	C94.341942,217.852448 90.317009,216.758865 87.117599,218.276794 
	C86.449257,214.358414 85.570961,210.962753 91.315620,212.133850 
	C92.739738,212.424179 94.227890,211.375031 95.967987,212.412506 
	C96.177872,212.784729 96.089447,212.955902 95.874969,213.387146 
z"/>
<path fill="#000000" opacity="1.000000" stroke="none" 
	d="
M99.910629,143.001312 
	C100.132355,135.129379 98.324791,127.997513 97.137993,120.789894 
	C96.051163,114.189346 96.611488,107.818680 99.870132,101.893845 
	C102.650986,96.837730 107.112762,94.659027 112.274673,95.546219 
	C117.274948,96.405640 120.046761,99.670403 121.450691,105.394920 
	C122.485947,109.616249 122.152832,113.724098 121.093979,117.731155 
	C117.954041,129.613663 114.680000,141.464539 111.191940,153.248917 
	C110.150597,156.767105 109.139709,161.767685 104.416916,161.175003 
	C100.209396,160.646973 100.873390,155.765213 100.421280,152.445053 
	C100.018890,149.490097 100.067169,146.473755 99.910629,143.001312 
z"/>
<path fill="#000000" opacity="1.000000" stroke="none" 
	d="
M140.811218,83.705269 
	C137.499191,89.713776 133.294952,90.686058 128.641907,86.552643 
	C121.711273,80.396011 119.525261,72.462563 120.964577,63.511192 
	C121.357941,61.064754 122.515495,58.357063 125.392738,58.084892 
	C128.385590,57.801788 129.538895,60.334507 130.359253,62.801422 
	C132.108551,68.061852 134.504913,72.919426 138.457642,76.951378 
	C140.119598,78.646645 140.849472,80.912186 140.811218,83.705269 
z"/>
<path fill="#000000" opacity="1.000000" stroke="none" 
	d="
M106.171585,56.878922 
	C109.791885,54.924389 110.678116,57.287823 111.196854,59.664925 
	C112.891945,67.432709 104.914261,80.303955 97.215866,82.221657 
	C93.810150,83.070030 90.353523,82.986542 88.436523,79.457413 
	C86.434860,75.772446 87.844322,72.488670 91.069290,70.362442 
	C96.684570,66.660278 101.507477,62.161785 106.171585,56.878922 
z"/>
<path fill="#000000" opacity="1.000000" stroke="none" 
	d="
M109.724655,88.705856 
	C106.528694,89.325676 106.041718,87.625160 106.765945,85.582558 
	C107.929001,82.302299 109.891449,79.461075 113.913269,79.900986 
	C117.159515,80.256065 118.934753,85.264259 117.607613,89.779877 
	C114.962036,90.469597 112.840515,87.246407 109.724655,88.705856 
z"/>
<path fill="#000000" opacity="1.000000" stroke="none" 
	d="
M107.650330,49.984219 
	C104.352730,51.923470 103.021263,55.048653 101.235130,57.812397 
	C98.792473,61.592003 95.862671,64.719627 90.874374,65.270348 
	C97.259125,61.236771 99.574196,53.910236 104.668991,48.939796 
	C107.181671,46.488457 110.327858,45.753941 112.949348,49.512550 
	C111.136848,50.832214 109.485146,48.926781 107.650330,49.984219 
z"/>
<path fill="#000000" opacity="1.000000" stroke="none" 
	d="
M136.041779,64.482994 
	C135.449875,63.087059 134.984558,62.019295 134.700974,60.905262 
	C132.263733,51.330830 131.907120,51.020908 122.810066,50.943737 
	C125.861076,46.988308 131.992233,47.523834 134.828781,52.169937 
	C137.120651,55.923916 137.191513,60.366222 137.927734,64.556511 
	C138.156097,65.856247 136.921555,65.257072 136.041779,64.482994 
z"/>
</svg>