<?xml version="1.0" standalone="no"?>
<!DOCTYPE svg PUBLIC "-//W3C//DTD SVG 20010904//EN"
 "http://www.w3.org/TR/2001/REC-SVG-20010904/DTD/svg10.dtd">
<svg version="1.0" xmlns="http://www.w3.org/2000/svg"
 width="1230.000000pt" height="1280.000000pt" viewBox="0 0 1230.000000 1280.000000"
 preserveAspectRatio="xMidYMid meet">
<g transform="translate(0.000000,1280.000000) scale(0.100000,-0.100000)"
fill="#000000" stroke="none">
<path d="M6779 12796 c-2 -2 -58 -12 -124 -21 -173 -24 -391 -82 -627 -168
-334 -122 -390 -150 -538 -272 -95 -78 -165 -90 -285 -51 -91 30 -115 23 -149
-47 -14 -29 -38 -116 -54 -194 -16 -78 -38 -157 -48 -175 -14 -23 -39 -42 -86
-65 -37 -18 -75 -44 -84 -58 -9 -14 -26 -90 -40 -187 -29 -202 -31 -208 -56
-235 -26 -28 -43 -28 -175 -6 -99 17 -102 17 -123 -2 -29 -27 -23 -61 36 -187
26 -56 43 -103 38 -108 -5 -5 -44 8 -87 27 -68 32 -80 34 -92 22 -17 -17 -7
-38 105 -229 79 -133 114 -180 167 -220 21 -16 50 -39 66 -50 l27 -22 0 -196
c0 -108 -4 -203 -9 -211 -18 -27 -73 -12 -224 63 -208 103 -259 115 -557 126
-155 5 -286 16 -385 31 -216 33 -487 33 -635 0 -135 -29 -251 -74 -426 -165
-453 -234 -766 -542 -1028 -1011 -261 -466 -438 -966 -566 -1593 -82 -406 -81
-392 -90 -1202 -9 -760 -12 -827 -60 -1085 -66 -354 -169 -657 -484 -1435 -93
-231 -134 -365 -170 -562 -9 -48 -16 -104 -16 -125 1 -56 34 -148 75 -204 39
-52 155 -159 174 -159 19 0 12 67 -10 110 -19 36 -21 52 -16 113 11 118 44
235 101 352 60 122 108 194 210 314 117 136 122 118 50 -173 -72 -294 -71
-381 10 -686 67 -250 83 -380 66 -543 -18 -180 -47 -263 -210 -607 -108 -226
-125 -293 -117 -454 4 -80 13 -136 32 -201 51 -168 57 -199 58 -315 0 -137
-20 -231 -88 -397 -41 -100 -56 -163 -37 -163 18 0 312 299 338 345 28 48 29
54 29 185 0 130 -2 139 -38 239 -57 160 -51 202 46 333 69 93 104 155 267 473
146 286 177 338 204 343 17 4 18 -3 12 -105 -12 -187 -33 -290 -111 -563 -140
-487 -160 -598 -131 -723 19 -81 50 -144 129 -261 90 -135 100 -163 102 -286
1 -61 6 -114 13 -127 l13 -23 443 0 443 0 -1 22 c-1 18 5 24 28 26 26 3 28 1
24 -22 l-5 -26 1989 0 c1582 0 1989 3 1992 13 38 143 62 204 161 407 130 267
150 332 141 452 -11 152 -79 372 -180 583 -85 177 -172 315 -341 540 -329 439
-521 778 -705 1242 -100 252 -138 329 -228 464 -98 145 -194 255 -411 469
-258 254 -321 355 -321 517 0 61 7 97 36 182 46 135 117 285 182 387 96 149
146 288 172 469 16 115 56 268 84 323 25 50 85 110 133 135 55 29 120 39 294
47 212 9 254 23 348 118 105 104 128 186 82 291 -34 81 -27 157 28 284 50 115
49 134 -12 174 -52 35 -57 62 -23 112 14 20 26 49 26 63 0 15 -25 77 -55 139
-30 62 -55 123 -55 137 0 14 11 44 25 66 24 40 38 53 139 119 27 17 59 45 70
60 43 58 16 149 -74 249 -55 62 -63 84 -27 74 85 -25 136 -10 220 62 83 72
114 68 280 -36 132 -83 132 -83 205 -92 85 -11 110 -35 147 -143 36 -104 48
-122 93 -140 47 -19 59 -33 111 -132 57 -106 124 -195 209 -278 146 -140 188
-133 461 71 147 110 168 123 200 120 49 -4 49 -23 1 -86 -51 -68 -65 -118 -49
-174 35 -126 31 -171 -36 -373 -55 -165 -97 -260 -189 -425 -203 -363 -416
-956 -580 -1615 -136 -546 -173 -915 -147 -1449 36 -746 44 -1001 45 -1536 1
-578 -3 -683 -40 -990 -39 -327 -120 -760 -159 -855 -8 -19 -15 -37 -15 -40 0
-3 1082 -5 2404 -5 l2404 0 12 53 c11 45 152 519 533 1787 53 173 143 479 202
680 129 441 215 720 302 980 67 201 113 390 113 470 0 67 -36 229 -80 355 -20
61 -43 144 -50 185 -16 93 -18 375 -6 940 11 553 -2 687 -91 944 -105 304
-263 532 -633 910 -199 204 -337 325 -530 469 -74 55 -160 119 -190 141 -90
68 -261 244 -348 361 -87 116 -123 181 -172 307 -24 63 -27 83 -19 106 11 33
1 71 -66 227 -134 313 -187 384 -377 501 -164 101 -261 97 -419 -16 -95 -68
-123 -73 -192 -39 -23 12 -76 56 -118 98 -110 111 -131 160 -164 386 -51 352
-125 598 -283 935 -68 145 -96 232 -143 438 -110 491 -219 722 -521 1103 -206
262 -439 395 -795 454 -129 22 -311 33 -324 21z m-1565 -3600 c49 -21 73 -61
127 -224 95 -280 114 -393 103 -603 -4 -78 -11 -139 -16 -139 -6 0 -20 12 -32
27 -153 191 -194 295 -181 458 9 108 -2 155 -77 320 -32 71 -57 136 -56 144 6
29 81 39 132 17z m-3958 -6362 c9 -36 -8 -136 -23 -142 -10 -3 -13 15 -13 66
0 73 6 102 21 102 5 0 12 -12 15 -26z"/>
</g>
</svg>
