<svg version="1.1" id="Layer_1" xmlns="http://www.w3.org/2000/svg" xmlns:xlink="http://www.w3.org/1999/xlink" x="0px" y="0px"
	 width="100%" viewBox="0 0 236 214" enable-background="new 0 0 236 214" xml:space="preserve">
<path fill="#FAFAFA" opacity="1.000000" stroke="none" 
	d="
M99.000000,215.000000 
	C66.362511,215.000000 33.725029,215.000000 1.043772,215.000000 
	C1.043772,143.759598 1.043772,72.519150 1.043772,1.000000 
	C60.020603,1.000000 119.041641,1.000000 178.479523,1.359708 
	C178.402405,2.132642 177.648590,2.451949 177.459427,2.975341 
	C176.639328,5.244332 174.989441,7.875043 175.570602,9.788170 
	C176.072800,11.441483 179.104111,13.057977 181.158676,13.260984 
	C182.621613,13.405535 185.638306,11.175791 185.637161,10.007924 
	C185.634766,7.575563 184.194244,5.097618 183.120132,2.740751 
	C182.779633,1.993604 181.726822,1.571084 181.000000,1.000003 
	C199.594101,1.000000 218.188217,1.000000 237.000000,1.000000 
	C237.000000,19.686998 237.000000,38.374840 236.701111,57.354900 
	C234.294952,53.487118 230.890381,51.782185 226.537292,53.381104 
	C222.838715,54.739613 221.445023,58.012035 221.869766,61.842953 
	C222.353333,66.204659 225.417877,68.629936 229.332092,68.227058 
	C232.004761,67.951973 234.451981,65.486275 237.000000,63.999996 
	C237.000000,114.248177 237.000000,164.496353 237.000000,215.000000 
	C201.312851,215.000000 165.625076,215.000000 129.607147,214.622955 
	C140.013718,212.418564 150.518021,209.964584 160.632645,203.347641 
	C155.352768,202.994751 151.345535,202.726913 147.338303,202.459076 
	C151.010193,200.685059 154.537247,199.869431 157.961319,198.741287 
	C158.527054,198.554901 158.642014,197.000381 159.101074,195.839874 
	C159.838089,194.953629 160.439331,194.305649 161.451752,193.507797 
	C166.815460,192.426895 172.553650,195.552948 177.661835,190.537964 
	C161.090302,188.344711 145.812424,185.094971 131.963898,176.613007 
	C130.280411,175.824036 128.653381,175.364334 126.703003,174.886902 
	C125.914734,174.457230 125.449806,174.045334 124.902649,173.460785 
	C124.635246,173.095276 124.409607,172.985764 123.943527,172.795456 
	C123.509514,172.379517 123.275467,172.127731 123.037720,171.535309 
	C123.025299,170.513489 123.016571,169.832291 123.359192,169.173386 
	C127.085236,170.601013 130.438751,172.059982 133.838318,173.402328 
	C147.966187,178.980896 162.278198,183.799637 177.710709,184.026688 
	C181.065277,184.076035 183.960190,183.531326 185.502853,179.349747 
	C183.084518,178.497711 180.863907,177.715332 177.350266,176.477402 
	C182.387512,175.015900 186.198471,173.910187 189.927704,172.828201 
	C141.381393,164.329056 98.235039,144.582153 60.927460,112.991791 
	C60.682831,114.264702 60.457645,115.436440 60.232456,116.608185 
	C59.120251,116.218498 57.723743,116.129913 56.941227,115.391052 
	C51.144108,109.917381 45.498074,104.284218 39.747200,98.760887 
	C34.508308,93.729279 29.197290,88.772781 23.715763,83.591972 
	C23.088818,85.690437 22.507929,87.158020 22.218613,88.680992 
	C20.425354,98.120766 18.438698,107.534607 17.030600,117.033295 
	C15.918681,124.534042 18.037788,130.897842 25.553385,134.413300 
	C25.847195,134.550720 25.881361,135.243240 26.194036,136.117630 
	C23.240656,135.697861 20.614862,135.324661 17.807463,134.925629 
	C20.028692,145.317474 22.593803,147.804230 35.997986,153.362442 
	C35.997005,154.145218 35.994556,154.592529 35.662266,155.136261 
	C32.271500,154.824081 29.210571,154.415482 25.927011,153.977158 
	C28.596382,167.674591 40.628853,167.942215 50.032593,171.776169 
	C45.372932,171.776169 40.713268,171.776169 35.598049,171.776169 
	C36.312843,172.876007 36.766426,173.729019 37.361935,174.467575 
	C52.555214,193.310333 71.058365,207.195297 94.984100,213.006805 
	C96.400551,213.350845 97.664879,214.321152 99.000000,215.000000 
M215.997284,100.599358 
	C216.082214,101.127281 216.167145,101.655212 216.252090,102.183136 
	C216.465805,102.114105 216.679535,102.045074 216.893265,101.976044 
	C216.596527,101.316658 216.299789,100.657280 216.008011,99.295280 
	C215.682129,98.664314 215.356232,98.033348 215.030334,97.402382 
	C214.736176,97.700790 214.442017,97.999199 214.147873,98.297600 
	C214.764236,98.866188 215.380600,99.434769 215.997284,100.599358 
M213.785065,88.492790 
	C213.396896,88.518135 213.008713,88.543488 212.620544,88.568840 
	C213.034683,88.761429 213.448822,88.954025 213.810196,89.874870 
	C213.625153,91.360909 213.440094,92.846939 213.255051,94.332977 
	C213.862244,94.314201 214.469437,94.295425 215.076645,94.276649 
	C214.749268,92.475281 214.421906,90.673904 213.785065,88.492790 
M211.549225,82.717133 
	C210.320389,83.163338 209.091553,83.609543 207.362579,83.559479 
	C201.204575,66.982178 191.069855,53.154869 178.827988,41.002991 
	C178.510147,39.439159 178.192307,37.875324 177.874451,36.311493 
	C177.378708,36.417183 176.882965,36.522873 176.387222,36.628559 
	C176.216187,37.568634 176.045151,38.508705 175.235260,39.144016 
	C173.180191,37.767696 171.069504,36.467010 169.078522,35.003529 
	C145.459808,17.642536 119.315910,11.862838 90.761147,18.577990 
	C75.520485,22.162100 62.708088,30.596973 51.179909,40.951698 
	C45.740833,45.837132 45.411968,48.912037 49.813862,54.723583 
	C51.979538,57.582798 54.767330,60.169037 57.745518,62.179863 
	C69.873825,70.368729 82.202621,78.260117 94.405373,86.339935 
	C95.924446,87.345757 97.131844,88.822296 98.483658,90.080727 
	C94.173470,89.236176 90.664619,87.675987 86.992165,86.807999 
	C85.299889,86.408020 82.453026,86.746552 81.631760,87.859070 
	C80.608856,89.244698 80.277939,92.315170 81.154945,93.712288 
	C83.943039,98.153938 86.961594,102.663315 90.774361,106.192200 
	C94.945099,110.052399 99.860321,113.286636 104.869087,116.030701 
	C122.349083,125.607132 139.656799,135.617706 157.722488,143.964401 
	C170.310760,149.780426 183.937561,153.458328 197.284042,157.482437 
	C205.266998,159.889359 205.793945,159.252151 208.131714,151.377563 
	C209.831039,145.653488 211.174866,139.823853 213.153778,133.901031 
	C213.111435,133.269684 213.069077,132.638321 212.947342,131.090454 
	C213.184143,127.745659 213.420944,124.400856 214.267578,121.121254 
	C215.101410,121.747810 215.935257,122.374359 218.041397,123.956932 
	C217.604492,117.787048 217.240768,112.650734 216.877060,107.514412 
	C216.534149,107.537827 216.191254,107.561234 215.848358,107.584641 
	C215.055740,109.709755 214.263123,111.834877 213.218918,113.084000 
	C211.619995,104.098412 210.021072,95.112816 209.224670,86.066605 
	C210.747696,86.066605 212.270721,86.066605 214.504257,86.066605 
	C213.511078,84.331116 212.817856,83.119751 212.008240,81.148140 
	C211.007904,78.394798 210.007568,75.641457 209.007217,72.888115 
	C208.266541,73.246704 207.525864,73.605293 206.785187,73.963882 
	C208.464584,76.679787 210.143982,79.395699 211.549225,82.717133 
M170.520065,25.567719 
	C169.361633,24.089188 168.459030,22.229267 166.976089,21.234474 
	C165.343491,20.139290 163.177475,19.839308 161.243835,19.192898 
	C161.570007,20.462872 162.387695,21.365158 163.375198,22.005564 
	C165.539749,23.409304 167.790375,24.680340 169.383240,26.058298 
	C168.815109,26.500431 168.246994,26.942566 167.678864,27.384699 
	C167.970062,27.625725 168.261276,27.866751 168.552475,28.107775 
	C169.033173,27.403246 169.513870,26.698715 170.520065,25.567719 
M190.093063,45.388390 
	C190.208496,45.420742 190.323914,45.453098 190.439331,45.485458 
	C190.343857,45.281612 190.248383,45.077770 190.097992,44.161606 
	C187.430222,41.159435 184.762451,38.157261 182.094681,35.155090 
	C183.168350,40.430370 183.168350,40.430370 190.093063,45.388390 
M76.399773,116.088531 
	C94.364044,129.629913 112.956093,142.044250 134.772995,148.745224 
	C103.452644,133.518295 75.896698,112.839622 50.002274,89.717049 
	C49.522472,90.312073 49.042667,90.907089 48.562862,91.502113 
	C57.651779,99.557053 66.740692,107.612000 76.399773,116.088531 
M21.337051,55.142616 
	C30.949558,66.249176 34.610130,69.389450 39.422428,70.384659 
	C29.447758,58.310448 16.619143,47.309391 26.546858,28.950956 
	C24.250086,30.654772 22.190943,32.460358 21.138262,34.732281 
	C20.032103,37.119621 19.889624,39.953480 19.212259,43.124866 
	C15.381204,36.917526 17.161190,30.982040 19.110716,24.675779 
	C13.562387,28.185349 11.163506,33.511459 13.306709,39.569771 
	C15.159241,44.806419 18.350513,49.569473 21.337051,55.142616 
M19.061935,187.496735 
	C20.391060,188.598557 21.585016,190.113022 23.111294,190.612976 
	C23.786421,190.834137 25.780785,189.128784 25.992798,188.062653 
	C26.198324,187.029129 24.711571,184.610367 24.271490,184.681351 
	C22.504040,184.966415 20.854303,185.981323 19.061935,187.496735 
M211.550522,165.953140 
	C214.966965,165.953140 218.383408,165.953140 221.799850,165.953140 
	C221.802872,165.581177 221.805908,165.209229 221.808929,164.837265 
	C215.106400,164.326340 208.403854,163.815414 201.701324,163.304489 
	C201.631973,163.822220 201.562637,164.339966 201.493286,164.857697 
	C204.528809,165.216599 207.564346,165.575500 211.550522,165.953140 
M222.241241,137.924896 
	C222.585342,136.189804 222.929428,134.454712 223.273514,132.719635 
	C221.892548,132.943726 220.511566,133.167816 219.130615,133.391891 
	C219.891708,134.954834 220.652802,136.517776 222.241241,137.924896 
M195.706833,51.245724 
	C194.920425,49.863571 194.134003,48.481415 193.347580,47.099258 
	C192.787033,47.568253 192.226486,48.037247 191.665939,48.506241 
	C192.852341,49.580662 194.038742,50.655087 195.706833,51.245724 
M206.159485,69.176483 
	C206.322388,69.936157 206.485275,70.695839 206.648178,71.455521 
	C207.020065,71.286095 207.391937,71.116661 207.763809,70.947227 
	C207.431366,70.345848 207.098938,69.744469 206.159485,69.176483 
M197.702499,55.752850 
	C197.973907,55.348000 198.245331,54.943153 198.516739,54.538307 
	C198.092651,54.402641 197.668549,54.266979 197.244461,54.131317 
	C197.220520,54.594688 197.196594,55.058060 197.702499,55.752850 
M175.410049,27.691156 
	C175.629135,27.987074 175.848236,28.282990 176.067322,28.578907 
	C176.255432,28.397287 176.443542,28.215666 176.631653,28.034044 
	C176.346786,27.801838 176.061905,27.569630 175.410049,27.691156 
M159.506241,17.477472 
	C159.298126,17.851011 158.999420,18.207640 158.925049,18.606142 
	C158.893890,18.773071 159.338364,19.028780 159.566605,19.244122 
	C159.645874,18.788860 159.725128,18.333597 159.506241,17.477472 
M202.796524,60.912567 
	C202.451065,60.896706 202.094070,60.828136 201.767715,60.899559 
	C201.678650,60.919056 201.681686,61.359428 201.642456,61.606655 
	C202.008698,61.542641 202.374939,61.478626 202.796524,60.912567 
M199.803055,58.213116 
	C199.865891,58.399578 199.928711,58.586037 199.991547,58.772499 
	C200.051239,58.585381 200.110916,58.398266 199.803055,58.213116 
M172.253357,25.807955 
	C172.372589,25.972111 172.491806,26.136267 172.611038,26.300423 
	C172.586288,26.071011 172.561523,25.841597 172.253357,25.807955 
M24.519966,152.425018 
	C24.519966,152.425018 24.576422,152.521545 24.519966,152.425018 
M172.482498,29.597561 
	C172.482498,29.597561 172.412262,29.481035 172.482498,29.597561 
z"/>
<path fill="#050505" opacity="1.000000" stroke="none" 
	d="
M99.468658,215.000000 
	C97.664879,214.321152 96.400551,213.350845 94.984100,213.006805 
	C71.058365,207.195297 52.555214,193.310333 37.361935,174.467575 
	C36.766426,173.729019 36.312843,172.876007 35.598049,171.776169 
	C40.713268,171.776169 45.372932,171.776169 50.032593,171.776169 
	C40.628853,167.942215 28.596382,167.674591 25.927011,153.977158 
	C29.210571,154.415482 32.271500,154.824081 35.939407,155.272675 
	C37.598129,155.212051 38.649876,155.111435 39.701618,155.010818 
	C39.686264,154.715485 39.670910,154.420151 39.655560,154.124817 
	C38.435875,153.758865 37.216194,153.392899 35.996513,153.026947 
	C22.593803,147.804230 20.028692,145.317474 17.807463,134.925629 
	C20.614862,135.324661 23.240656,135.697861 26.194036,136.117630 
	C25.881361,135.243240 25.847195,134.550720 25.553385,134.413300 
	C18.037788,130.897842 15.918681,124.534042 17.030600,117.033295 
	C18.438698,107.534607 20.425354,98.120766 22.218613,88.680992 
	C22.507929,87.158020 23.088818,85.690437 23.715763,83.591972 
	C29.197290,88.772781 34.508308,93.729279 39.747200,98.760887 
	C45.498074,104.284218 51.144108,109.917381 56.941227,115.391052 
	C57.723743,116.129913 59.120251,116.218498 60.232456,116.608185 
	C60.457645,115.436440 60.682831,114.264702 60.927460,112.991791 
	C98.235039,144.582153 141.381393,164.329056 189.927704,172.828201 
	C186.198471,173.910187 182.387512,175.015900 177.350266,176.477402 
	C180.863907,177.715332 183.084518,178.497711 185.502853,179.349747 
	C183.960190,183.531326 181.065277,184.076035 177.710709,184.026688 
	C162.278198,183.799637 147.966187,178.980896 133.838318,173.402328 
	C130.438751,172.059982 127.085236,170.601013 123.060150,168.931488 
	C120.990509,168.356216 119.571251,168.045120 118.151985,167.734024 
	C118.037369,168.060349 117.922745,168.386673 117.808121,168.712982 
	C119.552551,169.767303 121.296982,170.821625 123.041412,171.875946 
	C123.275467,172.127731 123.509514,172.379517 123.920784,173.069870 
	C124.393631,173.550095 124.689255,173.591766 124.984879,173.633423 
	C125.449806,174.045334 125.914734,174.457230 126.838303,175.219421 
	C128.871429,176.027222 130.445892,176.484741 132.020370,176.942261 
	C145.812424,185.094971 161.090302,188.344711 177.661835,190.537964 
	C172.553650,195.552948 166.815460,192.426895 161.118164,193.404526 
	C159.301880,193.967133 158.230408,194.483139 157.158920,194.999130 
	C157.761047,195.358810 158.363174,195.718475 158.965302,196.078140 
	C158.642014,197.000381 158.527054,198.554901 157.961319,198.741287 
	C154.537247,199.869431 151.010193,200.685059 147.338303,202.459076 
	C151.345535,202.726913 155.352768,202.994751 160.632645,203.347641 
	C150.518021,209.964584 140.013718,212.418564 129.138489,214.622955 
	C119.312439,215.000000 109.624878,215.000000 99.468658,215.000000 
M133.125244,188.834900 
	C135.150925,186.585739 135.283661,184.136566 132.804901,182.437958 
	C131.607132,181.617142 128.898346,181.334946 128.031876,182.107605 
	C126.880013,183.134811 126.044914,185.709198 126.529022,187.119186 
	C127.409416,189.683365 129.723648,190.835876 133.125244,188.834900 
z"/>
<path fill="#0B0B0B" opacity="1.000000" stroke="none" 
	d="
M237.000000,63.571533 
	C234.451981,65.486275 232.004761,67.951973 229.332092,68.227058 
	C225.417877,68.629936 222.353333,66.204659 221.869766,61.842953 
	C221.445023,58.012035 222.838715,54.739613 226.537292,53.381104 
	C230.890381,51.782185 234.294952,53.487118 236.701111,57.823559 
	C237.000000,59.714359 237.000000,61.428715 237.000000,63.571533 
z"/>
<path fill="#0E0E0E" opacity="1.000000" stroke="none" 
	d="
M180.666672,1.000003 
	C181.726822,1.571084 182.779633,1.993604 183.120132,2.740751 
	C184.194244,5.097618 185.634766,7.575563 185.637161,10.007924 
	C185.638306,11.175791 182.621613,13.405535 181.158676,13.260984 
	C179.104111,13.057977 176.072800,11.441483 175.570602,9.788170 
	C174.989441,7.875043 176.639328,5.244332 177.459427,2.975341 
	C177.648590,2.451949 178.402405,2.132642 178.948181,1.359708 
	C179.444443,1.000000 179.888901,1.000000 180.666672,1.000003 
z"/>
<path fill="#040404" opacity="1.000000" stroke="none" 
	d="
M212.677185,134.041290 
	C211.174866,139.823853 209.831039,145.653488 208.131714,151.377563 
	C205.793945,159.252151 205.266998,159.889359 197.284042,157.482437 
	C183.937561,153.458328 170.310760,149.780426 157.722488,143.964401 
	C139.656799,135.617706 122.349083,125.607132 104.869087,116.030701 
	C99.860321,113.286636 94.945099,110.052399 90.774361,106.192200 
	C86.961594,102.663315 83.943039,98.153938 81.154945,93.712288 
	C80.277939,92.315170 80.608856,89.244698 81.631760,87.859070 
	C82.453026,86.746552 85.299889,86.408020 86.992165,86.807999 
	C90.664619,87.675987 94.173470,89.236176 98.483658,90.080727 
	C97.131844,88.822296 95.924446,87.345757 94.405373,86.339935 
	C82.202621,78.260117 69.873825,70.368729 57.745518,62.179863 
	C54.767330,60.169037 51.979538,57.582798 49.813862,54.723583 
	C45.411968,48.912037 45.740833,45.837132 51.179909,40.951698 
	C62.708088,30.596973 75.520485,22.162100 90.761147,18.577990 
	C119.315910,11.862838 145.459808,17.642536 169.078522,35.003529 
	C171.069504,36.467010 173.180191,37.767696 175.667084,39.519123 
	C176.772934,40.354027 177.446945,40.813828 178.120956,41.273628 
	C191.069855,53.154869 201.204575,66.982178 207.581604,84.084763 
	C208.007797,85.115776 208.214981,85.621498 208.422165,86.127228 
	C210.021072,95.112816 211.619995,104.098412 213.229324,113.955696 
	C213.379074,116.903618 213.518402,118.979836 213.657730,121.056061 
	C213.420944,124.400856 213.184143,127.745659 212.832718,131.774719 
	C212.704453,132.986435 212.690811,133.513855 212.677185,134.041290 
M171.245422,96.552231 
	C171.683609,95.475204 172.204773,94.423843 172.547211,93.317184 
	C176.053894,81.984238 169.854370,68.975578 159.084671,65.013885 
	C148.171371,60.999374 136.150787,66.021629 131.658264,77.463890 
	C127.292931,88.582146 129.653763,100.315636 141.507187,106.471069 
	C152.462875,112.160309 163.465027,108.727364 171.245422,96.552231 
M107.033615,58.579102 
	C110.297417,55.925400 109.779442,52.706707 107.063637,50.604465 
	C105.973015,49.760246 102.168365,50.752892 100.934471,52.117260 
	C98.510391,54.797661 101.297676,58.135559 107.033615,58.579102 
M137.210495,40.700466 
	C135.358871,42.911137 135.336761,45.185303 138.028793,46.346935 
	C138.802536,46.680813 141.483597,44.851494 141.733673,43.681355 
	C142.287003,41.092194 140.656174,39.702461 137.210495,40.700466 
z"/>
<path fill="#1D1D1D" opacity="1.000000" stroke="none" 
	d="
M76.114685,115.877731 
	C66.740692,107.612000 57.651779,99.557053 48.562862,91.502113 
	C49.042667,90.907089 49.522472,90.312073 50.002274,89.717049 
	C75.896698,112.839622 103.452644,133.518295 134.772995,148.745224 
	C112.956093,142.044250 94.364044,129.629913 76.114685,115.877731 
z"/>
<path fill="#111111" opacity="1.000000" stroke="none" 
	d="
M21.143520,54.842247 
	C18.350513,49.569473 15.159241,44.806419 13.306709,39.569771 
	C11.163506,33.511459 13.562387,28.185349 19.110716,24.675779 
	C17.161190,30.982040 15.381204,36.917526 19.212259,43.124866 
	C19.889624,39.953480 20.032103,37.119621 21.138262,34.732281 
	C22.190943,32.460358 24.250086,30.654772 26.546858,28.950956 
	C16.619143,47.309391 29.447758,58.310448 39.422428,70.384659 
	C34.610130,69.389450 30.949558,66.249176 21.143520,54.842247 
z"/>
<path fill="#EAEAEA" opacity="1.000000" stroke="none" 
	d="
M213.962646,121.088654 
	C213.518402,118.979836 213.379074,116.903618 213.355118,114.393692 
	C214.263123,111.834877 215.055740,109.709755 215.848358,107.584641 
	C216.191254,107.561234 216.534149,107.537827 216.877060,107.514412 
	C217.240768,112.650734 217.604492,117.787048 218.041397,123.956932 
	C215.935257,122.374359 215.101410,121.747810 213.962646,121.088654 
z"/>
<path fill="#1A1A1A" opacity="1.000000" stroke="none" 
	d="
M19.111496,187.111603 
	C20.854303,185.981323 22.504040,184.966415 24.271490,184.681351 
	C24.711571,184.610367 26.198324,187.029129 25.992798,188.062653 
	C25.780785,189.128784 23.786421,190.834137 23.111294,190.612976 
	C21.585016,190.113022 20.391060,188.598557 19.111496,187.111603 
z"/>
<path fill="#6D6D6D" opacity="1.000000" stroke="none" 
	d="
M211.075195,165.943771 
	C207.564346,165.575500 204.528809,165.216599 201.493286,164.857697 
	C201.562637,164.339966 201.631973,163.822220 201.701324,163.304489 
	C208.403854,163.815414 215.106400,164.326340 221.808929,164.837265 
	C221.805908,165.209229 221.802872,165.581177 221.799850,165.953140 
	C218.383408,165.953140 214.966965,165.953140 211.075195,165.943771 
z"/>
<path fill="#EAEAEA" opacity="1.000000" stroke="none" 
	d="
M189.896729,45.127853 
	C183.168350,40.430370 183.168350,40.430370 182.094681,35.155090 
	C184.762451,38.157261 187.430222,41.159435 190.058502,44.578327 
	C190.019028,44.995049 189.896729,45.127853 189.896729,45.127853 
z"/>
<path fill="#101010" opacity="1.000000" stroke="none" 
	d="
M221.827576,138.002808 
	C220.652802,136.517776 219.891708,134.954834 219.130615,133.391907 
	C220.511566,133.167816 221.892548,132.943726 223.273514,132.719635 
	C222.929428,134.454712 222.585342,136.189804 221.827576,138.002808 
z"/>
<path fill="#EAEAEA" opacity="1.000000" stroke="none" 
	d="
M170.005844,26.005568 
	C167.790375,24.680340 165.539749,23.409304 163.375198,22.005564 
	C162.387695,21.365158 161.570007,20.462872 161.243835,19.192898 
	C163.177475,19.839308 165.343491,20.139290 166.976089,21.234474 
	C168.459030,22.229267 169.361633,24.089188 170.260040,25.783859 
	C170.000000,26.000000 170.005844,26.005568 170.005844,26.005568 
z"/>
<path fill="#EAEAEA" opacity="1.000000" stroke="none" 
	d="
M211.823364,82.111610 
	C210.143982,79.395699 208.464584,76.679787 206.785187,73.963882 
	C207.525864,73.605293 208.266541,73.246704 209.007217,72.888115 
	C210.007568,75.641457 211.007904,78.394798 211.991821,81.581207 
	C211.975388,82.014275 211.823364,82.111610 211.823364,82.111610 
z"/>
<path fill="#EAEAEA" opacity="1.000000" stroke="none" 
	d="
M208.823425,86.096916 
	C208.214981,85.621498 208.007797,85.115776 207.831665,84.332901 
	C209.091553,83.609543 210.320389,83.163338 211.686295,82.414368 
	C211.823364,82.111610 211.975388,82.014275 212.050018,81.961334 
	C212.817856,83.119751 213.511078,84.331116 214.504257,86.066605 
	C212.270721,86.066605 210.747696,86.066605 208.823425,86.096916 
z"/>
<path fill="#EAEAEA" opacity="1.000000" stroke="none" 
	d="
M178.474472,41.138309 
	C177.446945,40.813828 176.772934,40.354027 175.986511,39.671505 
	C176.045151,38.508705 176.216187,37.568634 176.387222,36.628559 
	C176.882965,36.522873 177.378708,36.417183 177.874451,36.311493 
	C178.192307,37.875324 178.510147,39.439159 178.474472,41.138309 
z"/>
<path fill="#EAEAEA" opacity="1.000000" stroke="none" 
	d="
M195.465988,51.487617 
	C194.038742,50.655087 192.852341,49.580662 191.665939,48.506241 
	C192.226486,48.037247 192.787033,47.568253 193.347580,47.099258 
	C194.134003,48.481415 194.920425,49.863571 195.465988,51.487617 
z"/>
<path fill="#ECECEC" opacity="1.000000" stroke="none" 
	d="
M123.037720,171.535309 
	C121.296982,170.821625 119.552551,169.767303 117.808121,168.712982 
	C117.922745,168.386673 118.037369,168.060349 118.151985,167.734024 
	C119.571251,168.045120 120.990509,168.356216 122.708801,168.909210 
	C123.016571,169.832291 123.025299,170.513489 123.037720,171.535309 
z"/>
<path fill="#EAEAEA" opacity="1.000000" stroke="none" 
	d="
M214.094543,88.872536 
	C214.421906,90.673904 214.749268,92.475281 215.076645,94.276649 
	C214.469437,94.295425 213.862244,94.314201 213.255051,94.332977 
	C213.440094,92.846939 213.625153,91.360909 213.896057,89.443558 
	C213.981934,89.012253 214.094559,88.872536 214.094543,88.872536 
z"/>
<path fill="#ECECEC" opacity="1.000000" stroke="none" 
	d="
M131.963898,176.613007 
	C130.445892,176.484741 128.871429,176.027222 127.161652,175.237167 
	C128.653381,175.364334 130.280411,175.824036 131.963898,176.613007 
z"/>
<path fill="#E5E5E5" opacity="1.000000" stroke="none" 
	d="
M35.997986,153.362427 
	C37.216194,153.392899 38.435875,153.758865 39.655560,154.124817 
	C39.670910,154.420151 39.686264,154.715485 39.701618,155.010818 
	C38.649876,155.111435 37.598129,155.212051 36.269249,155.176239 
	C35.994556,154.592529 35.997005,154.145218 35.997986,153.362427 
z"/>
<path fill="#ECECEC" opacity="1.000000" stroke="none" 
	d="
M159.101074,195.839874 
	C158.363174,195.718475 157.761047,195.358810 157.158920,194.999130 
	C158.230408,194.483139 159.301880,193.967133 160.706955,193.554398 
	C160.439331,194.305649 159.838089,194.953629 159.101074,195.839874 
z"/>
<path fill="#EAEAEA" opacity="1.000000" stroke="none" 
	d="
M206.462982,69.159790 
	C207.098938,69.744469 207.431366,70.345848 207.763809,70.947235 
	C207.391937,71.116661 207.020065,71.286095 206.648178,71.455521 
	C206.485275,70.695839 206.322388,69.936157 206.462982,69.159790 
z"/>
<path fill="#EAEAEA" opacity="1.000000" stroke="none" 
	d="
M215.996948,100.003357 
	C215.380600,99.434769 214.764236,98.866188 214.147873,98.297600 
	C214.442017,97.999199 214.736176,97.700790 215.030334,97.402390 
	C215.356232,98.033348 215.682129,98.664314 216.003998,99.647644 
	C216.000000,100.000000 215.996948,100.003357 215.996948,100.003357 
z"/>
<path fill="#EAEAEA" opacity="1.000000" stroke="none" 
	d="
M197.437576,55.637138 
	C197.196594,55.058060 197.220520,54.594688 197.244461,54.131317 
	C197.668549,54.266979 198.092651,54.402641 198.516739,54.538307 
	C198.245331,54.943153 197.973907,55.348000 197.437576,55.637138 
z"/>
<path fill="#EAEAEA" opacity="1.000000" stroke="none" 
	d="
M169.997284,25.997093 
	C169.513870,26.698715 169.033173,27.403246 168.552475,28.107775 
	C168.261276,27.866751 167.970062,27.625725 167.678864,27.384699 
	C168.246994,26.942566 168.815109,26.500431 169.694550,26.031933 
	C170.005844,26.005568 170.000000,26.000000 169.997284,25.997093 
z"/>
<path fill="#EAEAEA" opacity="1.000000" stroke="none" 
	d="
M175.593536,27.514290 
	C176.061905,27.569630 176.346786,27.801838 176.631653,28.034044 
	C176.443542,28.215666 176.255432,28.397287 176.067322,28.578907 
	C175.848236,28.282990 175.629135,27.987074 175.593536,27.514290 
z"/>
<path fill="#EAEAEA" opacity="1.000000" stroke="none" 
	d="
M159.655319,17.677902 
	C159.725128,18.333597 159.645874,18.788860 159.566605,19.244122 
	C159.338364,19.028780 158.893890,18.773071 158.925049,18.606142 
	C158.999420,18.207640 159.298126,17.851011 159.655319,17.677902 
z"/>
<path fill="#EAEAEA" opacity="1.000000" stroke="none" 
	d="
M212.915482,133.971161 
	C212.690811,133.513855 212.704453,132.986435 212.872406,132.232986 
	C213.069077,132.638321 213.111435,133.269684 212.915482,133.971161 
z"/>
<path fill="#EAEAEA" opacity="1.000000" stroke="none" 
	d="
M202.768860,61.163589 
	C202.374939,61.478626 202.008698,61.542641 201.642456,61.606655 
	C201.681686,61.359428 201.678650,60.919056 201.767715,60.899559 
	C202.094070,60.828136 202.451065,60.896706 202.768860,61.163589 
z"/>
<path fill="#EAEAEA" opacity="1.000000" stroke="none" 
	d="
M216.001526,99.998947 
	C216.299789,100.657280 216.596527,101.316658 216.893265,101.976044 
	C216.679535,102.045074 216.465805,102.114105 216.252090,102.183136 
	C216.167145,101.655212 216.082214,101.127281 215.997116,100.301361 
	C215.996948,100.003357 216.000000,100.000000 216.001526,99.998947 
z"/>
<path fill="#EAEAEA" opacity="1.000000" stroke="none" 
	d="
M199.986832,58.212135 
	C200.110916,58.398266 200.051239,58.585381 199.991547,58.772499 
	C199.928711,58.586037 199.865891,58.399578 199.986832,58.212135 
z"/>
<path fill="#EAEAEA" opacity="1.000000" stroke="none" 
	d="
M172.395065,25.710070 
	C172.561523,25.841597 172.586288,26.071011 172.611038,26.300423 
	C172.491806,26.136267 172.372589,25.972111 172.395065,25.710070 
z"/>
<path fill="#EAEAEA" opacity="1.000000" stroke="none" 
	d="
M213.922455,89.079437 
	C213.448822,88.954025 213.034683,88.761429 212.620544,88.568832 
	C213.008713,88.543488 213.396896,88.518135 213.939819,88.682663 
	C214.094559,88.872536 213.981934,89.012253 213.922455,89.079437 
z"/>
<path fill="#E5E5E5" opacity="1.000000" stroke="none" 
	d="
M24.548195,152.473282 
	C24.576422,152.521545 24.519966,152.425018 24.548195,152.473282 
z"/>
<path fill="#ECECEC" opacity="1.000000" stroke="none" 
	d="
M124.902649,173.460785 
	C124.689255,173.591766 124.393631,173.550095 124.120750,173.234024 
	C124.409607,172.985764 124.635246,173.095276 124.902649,173.460785 
z"/>
<path fill="#EAEAEA" opacity="1.000000" stroke="none" 
	d="
M172.447388,29.539299 
	C172.412262,29.481035 172.482498,29.597561 172.447388,29.539299 
z"/>
<path fill="#EAEAEA" opacity="1.000000" stroke="none" 
	d="
M190.085968,44.934486 
	C190.248383,45.077770 190.343857,45.281612 190.439331,45.485458 
	C190.323914,45.453098 190.208496,45.420742 189.994904,45.258121 
	C189.896729,45.127853 190.019028,44.995049 190.085968,44.934486 
z"/>
<path fill="#E9E9E9" opacity="1.000000" stroke="none" 
	d="
M132.844543,189.083618 
	C129.723648,190.835876 127.409416,189.683365 126.529022,187.119186 
	C126.044914,185.709198 126.880013,183.134811 128.031876,182.107605 
	C128.898346,181.334946 131.607132,181.617142 132.804901,182.437958 
	C135.283661,184.136566 135.150925,186.585739 132.844543,189.083618 
z"/>
<path fill="#FAFAFA" opacity="1.000000" stroke="none" 
	d="
M171.105392,96.902122 
	C163.465027,108.727364 152.462875,112.160309 141.507187,106.471069 
	C129.653763,100.315636 127.292931,88.582146 131.658264,77.463890 
	C136.150787,66.021629 148.171371,60.999374 159.084671,65.013885 
	C169.854370,68.975578 176.053894,81.984238 172.547211,93.317184 
	C172.204773,94.423843 171.683609,95.475204 171.105392,96.902122 
z"/>
<path fill="#E8E8E8" opacity="1.000000" stroke="none" 
	d="
M106.667969,58.716568 
	C101.297676,58.135559 98.510391,54.797661 100.934471,52.117260 
	C102.168365,50.752892 105.973015,49.760246 107.063637,50.604465 
	C109.779442,52.706707 110.297417,55.925400 106.667969,58.716568 
z"/>
<path fill="#D8D8D8" opacity="1.000000" stroke="none" 
	d="
M137.527191,40.483856 
	C140.656174,39.702461 142.287003,41.092194 141.733673,43.681355 
	C141.483597,44.851494 138.802536,46.680813 138.028793,46.346935 
	C135.336761,45.185303 135.358871,42.911137 137.527191,40.483856 
z"/>
</svg>